<?xml version="1.0" encoding="utf-8"?>
<!-- Generator: Adobe Illustrator 24.1.3, SVG Export Plug-In . SVG Version: 6.00 Build 0)  -->
<svg version="1.1" id="Layer_1" xmlns="http://www.w3.org/2000/svg" xmlns:xlink="http://www.w3.org/1999/xlink" x="0px" y="0px"
	 viewBox="0 0 2044.2 2072" style="enable-background:new 0 0 2044.2 2072;" xml:space="preserve">
<style type="text/css">
	.st0{fill-rule:evenodd;clip-rule:evenodd;fill:#FFFFFF;}
	.st1{fill:#004282;}
	.st2{fill:#FFFFFF;}
	.st3{fill-rule:evenodd;clip-rule:evenodd;fill:#004282;}
</style>
<g>
	<polygon class="st0" points="1023,69.6 1072.4,70.9 1121.1,74.6 1169.2,80.7 1216.5,89.1 1263,100 1308.6,113 1353.2,128.2 
		1396.8,145.5 1439.3,164.8 1480.7,186.2 1520.9,209.4 1559.9,234.5 1597.5,261.5 1633.8,290.1 1668.7,320.4 1702,352.4 
		1733.8,385.9 1764.1,421 1792.5,457.5 1819.3,495.3 1844.3,534.5 1867.4,574.9 1888.7,616.6 1907.9,659.4 1925.1,703.2 
		1940.2,748.1 1953.2,793.8 1963.9,840.6 1972.3,888.2 1978.4,936.5 1982.1,985.4 1983.3,1035.1 1982.1,1084.8 1978.4,1133.9 
		1972.3,1182.2 1963.9,1229.8 1953.2,1276.5 1940.2,1322.3 1925.1,1367.1 1907.9,1411 1888.7,1453.8 1867.4,1495.4 1844.3,1535.9 
		1819.3,1575.1 1792.5,1612.9 1764.1,1649.3 1733.8,1684.4 1702,1717.9 1668.7,1750 1633.8,1780.2 1597.5,1808.9 1559.9,1835.9 
		1520.9,1861 1480.7,1884.2 1439.3,1905.6 1396.8,1924.9 1353.2,1942.2 1308.6,1957.4 1263,1970.4 1216.5,1981.2 1169.2,1989.6 
		1121.1,1995.8 1072.4,1999.5 1023,2000.8 973.5,1999.5 924.8,1995.8 876.8,1989.6 829.4,1981.2 783,1970.4 737.4,1957.4 
		692.8,1942.2 649.1,1924.9 606.6,1905.6 565.2,1884.2 525.1,1861 486,1835.9 448.4,1808.9 412.1,1780.2 377.3,1750 343.9,1717.9 
		312.1,1684.4 281.8,1649.3 253.4,1612.9 226.6,1575.1 201.6,1535.9 178.5,1495.4 157.3,1453.8 138,1411 120.8,1367.1 105.7,1322.3 
		92.8,1276.5 82,1229.8 73.6,1182.2 67.6,1133.9 63.9,1084.8 62.6,1035.1 63.9,985.4 67.6,936.5 73.6,888.2 82,840.6 92.8,793.8 
		105.7,748.1 120.8,703.2 138,659.4 157.3,616.6 178.5,574.9 201.6,534.5 226.6,495.3 253.4,457.5 281.8,421 312.1,385.9 
		343.9,352.4 377.3,320.4 412.1,290.1 448.4,261.5 486,234.5 525.1,209.4 565.2,186.2 606.6,164.8 649.1,145.5 692.8,128.2 
		737.4,113 783,100 829.4,89.1 876.8,80.7 924.8,74.6 973.5,70.9 1023,69.6 	"/>
	<polygon class="st1" points="1934.5,1036 1933.3,1083 1929.8,1129.3 1924,1174.9 1916,1219.9 1905.7,1264.1 1893.5,1307.3 
		1879.1,1349.7 1862.8,1391.2 1844.5,1431.7 1824.4,1471 1802.4,1509.2 1778.7,1546.3 1753.2,1582 1726.1,1616.5 1697.5,1649.6 
		1667.2,1681.2 1635.6,1711.5 1602.4,1740.2 1568,1767.3 1532.2,1792.7 1495.2,1816.5 1457,1838.5 1417.7,1858.6 1377.3,1876.8 
		1335.9,1893.2 1293.4,1907.6 1250.1,1919.8 1206,1930.1 1161,1938.1 1115.4,1943.9 1069.1,1947.4 1022.1,1948.6 975.1,1947.4 
		928.8,1943.9 883.2,1938.1 838.2,1930.1 794.1,1919.8 750.8,1907.6 708.5,1893.2 666.9,1876.8 626.5,1858.6 587.2,1838.5 
		549,1816.5 512,1792.7 476.2,1767.3 441.8,1740.2 408.6,1711.5 377,1681.2 346.7,1649.6 318.1,1616.5 291,1582 265.5,1546.3 
		241.8,1509.2 219.8,1471 199.7,1431.7 181.4,1391.2 165.1,1349.7 150.7,1307.3 138.5,1264.1 128.2,1219.9 120.2,1174.9 
		114.4,1129.3 110.9,1083 109.7,1036 110.9,989 114.4,942.7 120.2,897.1 128.2,852.1 138.5,807.9 150.7,764.7 165.1,722.3 
		181.4,680.7 199.7,640.3 219.8,601 241.8,562.8 265.5,525.7 291,490 318.1,455.5 346.7,422.4 377,390.8 408.6,360.5 441.8,331.8 
		476.2,304.7 512,279.3 549,255.5 587.2,233.5 626.5,213.4 666.9,195.1 708.5,178.8 750.8,164.4 794.1,152.2 838.2,141.9 
		883.2,133.9 928.8,128.1 975.1,124.6 1022.1,123.4 1069.1,124.6 1115.4,128.1 1161,133.9 1206,141.9 1250.1,152.2 1293.4,164.4 
		1335.9,178.8 1377.3,195.1 1417.7,213.4 1457,233.5 1495.2,255.5 1532.2,279.3 1568,304.7 1602.4,331.8 1635.6,360.5 1667.2,390.8 
		1697.5,422.4 1726.1,455.5 1753.2,490 1778.7,525.7 1802.4,562.8 1824.4,601 1844.5,640.3 1862.8,680.7 1879.1,722.3 1893.5,764.7 
		1905.7,807.9 1916,852.1 1924,897.1 1929.8,942.7 1933.3,989 1934.5,1036 	"/>
	<path class="st1" d="M1966,1036l-1.2,48.6l-3.7,48l-6.1,47.2l-8.3,46.5l-10.5,45.7l-12.7,44.7l-14.8,43.9l-16.9,42.9l-18.9,41.8
		l-20.8,40.7l-22.7,39.6l-24.6,38.3l-26.3,37l-27.9,35.7l-29.7,34.2l-31.3,32.8l-32.9,31.3l-34.2,29.7l-35.6,28.1l-37.1,26.3
		l-38.3,24.6l-39.4,22.7l-40.8,20.8l-41.8,18.9l-42.9,16.9l-43.9,14.8l-44.7,12.7l-45.7,10.5l-46.5,8.3l-47.2,6.1l-47.9,3.6
		l-48.6,1.2l-48.6-1.2l-47.9-3.6l-47.2-6.1l-46.5-8.3l-45.7-10.5l-44.7-12.7l-43.9-14.8l-42.9-16.9l-41.8-18.9l-40.7-20.8
		l-39.5-22.7l-38.3-24.6l-37.1-26.3l-35.6-28.1l-34.2-29.7l-32.7-31.3l-31.3-32.8l-29.7-34.2l-28.1-35.7l-26.3-37l-24.6-38.3
		l-22.7-39.6l-20.8-40.7l-18.9-41.8l-16.9-42.9l-14.8-43.9L108,1272l-10.5-45.7l-8.3-46.5l-6.1-47.2l-3.7-48l-1.1-48.6l1.1-48.6
		l3.7-48l6.1-47.2l8.3-46.5L108,800l12.7-44.7l14.8-43.9l16.9-42.9l18.9-41.8l20.8-40.7l22.7-39.6l24.6-38.3l26.3-37.1l28.1-35.6
		l29.7-34.2l31.3-32.8l32.7-31.3l34.2-29.7l35.6-28.1l37.1-26.3l38.3-24.6l39.5-22.6l40.7-20.9l41.8-18.9l42.9-16.9l43.9-14.8
		l44.7-12.7l45.7-10.5l46.5-8.3l47.2-6.1l47.9-3.6l48.6-1.2l48.6,1.2l47.9,3.6l47.2,6.1l46.5,8.3l45.7,10.5l44.7,12.7l43.9,14.8
		l42.9,16.9l41.8,18.9l40.8,20.9l39.4,22.6l38.3,24.6l37.1,26.3l35.6,28.1l34.2,29.7l32.9,31.3l31.3,32.8l29.7,34.2l27.9,35.6
		l26.3,37.1l24.6,38.3l22.7,39.6l20.8,40.7l18.9,41.8l16.9,42.9l14.8,43.9l12.7,44.7l10.5,45.7l8.3,46.5l6.1,47.2l3.7,48L1966,1036
		L1966,1036z M1022.1,47.1l-50.9,1.2L921,52.2l-49.4,6.3l-48.7,8.8l-47.8,11l-47,13.3l-46,15.5l-44.9,17.8l-43.7,19.8l-42.6,21.9
		l-41.4,23.7L469.3,216l-38.8,27.6L393.2,273l-35.8,31L323,336.7l-32.7,34.4l-31,35.8l-29.4,37.3l-27.6,38.8l-25.7,40.2l-23.7,41.4
		L131,607.3l-19.8,43.8l-17.8,44.9l-15.4,46l-13.3,47l-11,47.8l-8.8,48.7l-6.3,49.4l-3.8,50.2l-1.2,50.9l1.2,50.9l3.8,50.2l6.3,49.4
		l8.8,48.7l11,47.8l13.3,47l15.4,46l17.8,44.9l19.8,43.8l21.9,42.6l23.7,41.4l25.7,40.2l27.6,38.7l29.4,37.5l31,35.8l32.7,34.4
		l34.4,32.8l35.8,31l37.3,29.4l38.8,27.6l40.2,25.7l41.4,23.7l42.6,21.9l43.7,19.8l44.9,17.8l46,15.5l47,13.3l47.8,11l48.7,8.8
		l49.4,6.3l50.2,3.8l50.9,1.2l50.9-1.2l50.2-3.8l49.4-6.3l48.7-8.8l47.8-11l47-13.3l46-15.5l44.9-17.8l43.9-19.8l42.5-21.9
		l41.4-23.7l40.2-25.7l38.8-27.6l37.3-29.4l35.8-31l34.4-32.8l32.7-34.4l31-35.8l29.4-37.5l27.6-38.7l25.7-40.2l23.9-41.4l21.8-42.6
		l19.8-43.8l17.8-44.9l15.4-46l13.3-47l11-47.8l8.8-48.7l6.3-49.4l3.8-50.2l1.2-50.9l-1.2-50.9l-3.8-50.2l-6.3-49.4l-8.8-48.7
		l-11-47.8l-13.3-47l-15.4-46l-17.8-44.9l-19.8-43.8l-21.8-42.6l-23.9-41.4l-25.7-40.2l-27.6-38.8l-29.4-37.3l-31-35.8l-32.7-34.4
		l-34.4-32.8l-35.8-31l-37.3-29.4l-38.8-27.6l-40.2-25.7l-41.4-23.7l-42.5-21.9l-43.9-19.8l-44.9-17.8l-46-15.5l-47-13.3l-47.8-11
		l-48.7-8.8l-49.4-6.3l-50.2-3.8L1022.1,47.1L1022.1,47.1z"/>
	<path class="st2" d="M1749.9,534.4l-217.6,278h-27.7l-5.6-11.9l-5.9-11.7l-6.2-11.6l-6.5-11.5l-6.8-11.2l-6.9-11l-7.3-10.9
		l-7.5-10.8l-7.8-10.5l-8-10.3l-8.4-10.1l-8.5-9.9l-8.7-9.6l-9-9.4l-9.3-9.3l-9.4-9l-9.8-8.8l-9.8-8.5l-10.1-8.3l-10.3-8l-10.5-7.8
		l-10.8-7.5l-10.9-7.3l-11.1-7l-11.2-6.7l-11.4-6.6l-11.6-6.2l-11.7-5.9l-12-5.6l-12.1-5.3l-12.2-5.1l-12.4-4.7H1749.9L1749.9,534.4
		z M1021.5,534.4h-0.2H293.3l217.5,278h510.4l0.2,0.1l11.4,0.2l11.1,0.9l11.1,1.5l10.9,1.9l10.6,2.5l10.5,3l10.1,3.5l10,4l9.8,4.4
		l9.5,4.8l9.3,5.3l8.9,5.8l8.7,6.1l8.4,6.6l8,6.9l7.7,7.4l7.3,7.7l6.9,7.9l6.5,8.4l6.1,8.7l5.8,8.9l5.3,9.3l4.8,9.5l4.4,9.8l4,10
		l3.5,10.3l3,10.4l2.5,10.8l2,10.8l1.4,11.1l0.9,11.1l0.2,11.4l-0.2,11.4l-0.9,11.2l-1.4,11l-2,10.9l-2.5,10.6l-3,10.5l-3.5,10.3
		l-4,10l-4.4,9.8l-4.8,9.5l-5.3,9.1l-5.8,9l-6.1,8.7l-6.5,8.3l-6.9,8l-7.3,7.7l-7.7,7.3l-8,6.9l-8.4,6.6l-8.7,6.2l-8.9,5.7l-9.3,5.3
		l-9.5,4.8l-9.8,4.4l-10,4l-10.1,3.5l-10.5,3l-10.6,2.5l-10.9,2l-11.1,1.4l-11.1,0.9l-11.4,0.2l-11.4-0.2l-11.1-0.9l-11.1-1.4
		l-10.8-2l-10.8-2.5l-10.4-3l-10.3-3.5l-10-4l-9.8-4.4l-9.5-4.8l-9.3-5.3l-8.9-5.7l-8.7-6.2l-8.4-6.6l-7.9-6.9l-7.7-7.3l-7.3-7.7
		l-7-8l-6.5-8.3l-6.1-8.7l-5.8-9l-5.3-9.1l-4.8-9.5l-4.4-9.8l-4-10l-3.5-10.3l-3-10.5l-2.5-10.6l-1.9-10.9l-1.5-11l-0.9-11.2
		L801,1033l0.1-7.4l0.4-7.4l0.6-7.3l0.9-7.2l1-7.2l1.4-7l1.5-7l1.7-6.9l2-6.8l2.2-6.8l2.3-6.7l2.6-6.6l2.7-6.4l3.1-6.3l3.1-6.2
		l3.3-6.1l3.6-6.1l3.7-5.8l4-5.8l4.1-5.6l4.2-5.4l4.4-5.3l4.6-5.2l4.7-5.1l4.9-4.8l5.1-4.8l5.2-4.6l5.3-4.3l5.4-4.3l5.6-4.1l5.8-3.8
		l5.8-3.8H559.9l-2.2,5.6l-2.1,5.4l-2.1,5.6l-2,5.6l-2,5.6l-1.9,5.6l-1.9,5.7l-1.7,5.7l-1.6,5.7l-1.7,5.7l-1.5,5.8l-1.5,5.7
		l-1.5,5.8l-1.2,5.8l-1.4,5.9l-1.1,5.8l-1.2,5.9l-1,5.9l-1,5.9l-1,6.1l-0.9,5.9l-0.7,6.1l-0.7,6.1l-0.6,6.1l-0.6,6.1l-0.5,6.2
		l-0.4,6.2l-0.4,6.1l-0.2,6.2l-0.2,6.2l-0.1,6.3v6.2l0.6,25.7l2,25.3l3.2,25l4.3,24.5l5.6,24.1l6.7,23.7l7.9,23.1l8.9,22.6l10,22.1
		l11,21.5l12,20.9l13,20.3l14,19.5l14.7,18.8l15.7,18.2l16.6,17.3l17.3,16.4l18,15.7l18.8,14.8l19.6,13.8l20.1,13l20.9,12l21.5,11
		l22.1,10l22.6,8.9l23.1,7.9l23.7,6.7l24.1,5.6l24.6,4.4l25,3.1l25.2,2l25.7,0.6l25.7-0.6l25.3-2l24.8-3.1l24.6-4.4l24.1-5.6
		l23.7-6.7l23.1-7.9l22.6-8.9l22.1-10l21.5-11l20.9-12l20.1-13l19.6-13.8l18.8-14.8l18-15.7l17.3-16.4l16.6-17.3l15.7-18.2
		l14.8-18.8l13.8-19.5l13-20.3l12-20.9l11-21.5l10-22.1l8.9-22.6l7.9-23.1l6.7-23.7l5.6-24.1l4.3-24.5l3.2-25l2-25.3l0.6-25.7
		l-0.6-25.6l-2-25.3l-3.2-25l-4.3-24.6l-5.6-24.1l-6.7-23.6l-7.9-23.2l-8.9-22.6l-10-22.1l-11-21.5l-12-20.9l-13-20.1l-13.8-19.5
		l-14.8-18.9l-15.7-18l-16.6-17.3l-17.3-16.6l-18-15.7l-18.8-14.7l-19.6-14l-20.1-13l-20.9-12l-21.5-11l-22.1-10l-22.6-8.9
		l-23.1-7.9l-23.7-6.7l-24.1-5.6l-24.6-4.3l-24.8-3.2l-25.3-2L1021.5,534.4L1021.5,534.4z M1022.1,202l-8.2,0.2l-8,0.6l-7.9,1
		l-7.8,1.4l-7.5,1.9l-7.5,2.1l-7.3,2.5l-7.2,2.8l-7,3.2l-6.8,3.5l-6.7,3.8l-6.4,4.1l-6.2,4.3l-5.9,4.7l-5.7,4.9l-5.6,5.3l-5.2,5.4
		l-4.9,5.8l-4.7,5.9l-4.4,6.2l-4.1,6.4l-3.8,6.6l-3.5,6.8l-3.2,7l-2.8,7.2l-2.5,7.3l-2.1,7.5l-1.7,7.7L866,336l-1,7.9l-0.6,8l-0.2,8
		l0.2,8.2l0.6,8l1,7.9l1.4,7.8l1.7,7.7l2.1,7.5l2.5,7.3l2.8,7.2l3.2,7l3.5,6.8l3.8,6.6l4.1,6.4l4.4,6.2l4.7,5.9l4.9,5.8l5.2,5.4
		l5.6,5.2l5.7,5.1l5.9,4.7l6.2,4.3l6.4,4.1l6.7,3.8l6.8,3.5l7,3.2l7.2,2.8l7.3,2.5l7.5,2.1l7.5,1.9l7.8,1.4l7.9,1l8,0.6l8.2,0.1
		l8.2-0.1l8-0.6l7.9-1l7.8-1.4l7.5-1.9l7.5-2.1l7.3-2.5l7.2-2.8l7-3.2l6.8-3.5l6.7-3.8l6.4-4.1l6.2-4.3l5.9-4.7l5.7-5.1l5.6-5.2
		l5.2-5.4l4.9-5.8l4.7-5.9l4.4-6.2l4.1-6.4l3.8-6.6l3.5-6.8l3.2-7l2.7-7.2l2.6-7.3l2.1-7.5l1.7-7.7l1.4-7.8l1-7.9l0.6-8l0.2-8.2
		l-0.2-8l-0.6-8l-1-7.9l-1.4-7.8l-1.7-7.7l-2.1-7.5l-2.6-7.3l-2.7-7.2l-3.2-7l-3.5-6.8l-3.8-6.6l-4.1-6.4l-4.4-6.2l-4.7-5.9
		l-4.9-5.8l-5.2-5.4l-5.6-5.3l-5.7-4.9l-5.9-4.7l-6.2-4.3l-6.4-4.1l-6.7-3.8l-6.8-3.5l-7-3.2l-7.2-2.8l-7.3-2.5l-7.5-2.1l-7.5-1.9
		l-7.8-1.4l-7.9-1l-8-0.6L1022.1,202L1022.1,202z"/>
	<polygon class="st3" points="897.9,1441.1 935.7,1328.6 926.3,1325.4 924.3,1328.1 922.5,1330.6 920.8,1332.7 919.2,1334.4 
		917.6,1336 915.9,1337.2 915.2,1337.7 914.3,1338.2 913.5,1338.6 912.6,1339 911.6,1339.2 910.6,1339.5 909.6,1339.7 908.5,1339.8 
		906.2,1339.9 903.6,1339.8 900.6,1339.6 897.3,1339.1 893.6,1338.6 889.3,1337.8 885.7,1348.6 911.2,1357.3 884.6,1436.6 
		897.9,1441.1 	"/>
	<path class="st3" d="M961.9,1342.9l-1.2,0.7l-1.2,0.9l-1.2,0.9l-1.1,0.9l-1.1,1l-1,1l-0.9,1l-1,1.1l-1.5,2.2l-1.4,2.2l-1.1,2.5
		l-1,2.3l-0.7,2.5l-0.5,2.5l-0.2,2.5l-0.1,2.5v2.5l0.2,2.3l0.5,2.2l0.5,2.1l0.7,1.7l0.9,1.7l1.1,1.6l1.2,1.6l1.5,1.7l1.6,1.6
		l1.9,1.7l2,1.9l-2.5,1.1l-2.3,1l-2.1,1.1l-2,1.2l-1.7,1.1l-1.5,1.4l-1.4,1.4l-1.1,1.5l-0.9,0.7l-0.7,1l-0.7,1l-0.7,1l-0.7,1.1
		l-0.6,1.1l-0.6,1.2l-0.5,1.2l-0.6,1.4l-0.4,1.4l-0.5,1.5l-0.2,1.4l-0.4,1.5l-0.1,1.5l-0.2,1.6v1.6l-0.1,1.5v1.6l0.1,1.6l0.1,1.6
		l0.2,1.6l0.2,1.6l0.4,1.6l0.5,1.6l0.5,1.6l0.6,1.5l0.6,1.6l0.7,1.5l0.9,1.5l1,1.5l1,1.4l1.1,1.4l1.2,1.4l1.2,1.4l1.4,1.2l1.5,1.1
		l1.5,1.1l1.5,1l1.6,0.9l1.7,0.9l1.6,0.9l1.7,0.7l1.9,0.6l1.7,0.6l1.9,0.5l1.7,0.4l1.9,0.5l1.9,0.2l2,0.2l1.9,0.1l1.9,0.1h1.9
		l1.9-0.1l1.7-0.1l1.9-0.2l1.7-0.2l1.9-0.2l1.7-0.5l1.6-0.4l1.6-0.6l1.6-0.6l1.6-0.6l1.5-0.7l1.4-0.7l2-1.2l1.7-1.2l1.7-1.4l1.6-1.4
		l1.5-1.4l1.4-1.5l1.2-1.5l1.1-1.6l1-1.5l0.9-1.6l0.9-1.6l0.7-1.7l0.6-1.6l0.5-1.6l0.5-1.7l0.4-1.6l0.2-1.6l0.1-1.7l0.1-1.6v-1.6
		v-1.6l-0.2-1.6l-0.1-1.6l-0.2-1.5l-0.4-1.5l-0.4-1.5l-0.5-1.4l-0.5-1.2l-0.6-1.4l-0.6-1.1l-0.6-1.1l-0.7-1.1l-1-1.7l-1.1-1.9
		l-1.1-1.6l-1.4-1.6l-1.5-1.5l-1.5-1.4l-1.6-1l-1.6-0.9l1.6-0.9l1.6-1l1.6-1.1l1.5-1.1l2.8-2.2l2.3-2.1l0.7-0.7l0.6-0.9l0.7-0.9
		l0.6-1l0.6-1l0.5-1.1l0.5-1.1l0.5-1.2l0.7-2.5l0.5-2.6l0.2-2.8l0.1-2.8l-0.1-2.8l-0.4-2.8l-0.4-1.5l-0.2-1.4l-0.5-1.5l-0.5-1.4
		l-0.5-1.4l-0.7-1.4l-0.6-1.2l-0.7-1.2l-0.9-1.2l-1-1.1l-1-1.1l-1-1.1l-1.5-1.1l-1.5-1l-1.5-1l-1.5-0.9l-1.6-0.9l-1.5-0.7l-1.6-0.7
		l-1.5-0.6l-3.2-1.1l-3.2-0.9l-3.2-0.7l-3.1-0.5l-1.6-0.1h-1.5l-1.6-0.1l-1.5,0.1l-3,0.2l-2.8,0.5l-2.8,0.7l-2.7,0.9l-2.5,1.1
		L961.9,1342.9L961.9,1342.9z M997.8,1357.1l1,1.2l1,1.2l0.9,1.5l0.7,1.5l0.6,1.6l0.4,1.7l0.4,1.7l0.1,1.7v1.9l-0.1,1.7l-0.4,1.9
		l-0.5,1.9l-0.7,1.7l-0.9,1.7l-1.2,1.7l-1.4,1.6l-0.7,0.7l-1,0.7l-1,0.7l-1,0.5l-1.1,0.6l-1.2,0.5l-1.2,0.4l-1.2,0.4l-1.4,0.2
		l-1.4,0.2l-1.4,0.1l-1.4,0.1h-1.4l-1.5-0.1l-1.4-0.1l-1.4-0.1l-1.4-0.2l-1.4-0.4l-1.4-0.4l-1.2-0.5l-1.4-0.6l-1.1-0.6l-1.2-0.6
		l-1.1-0.9l-1-0.9l-1-0.9l-1-1.1l-0.7-1l-0.7-1.2l-0.6-1.2l-0.6-1.2l-0.4-1.5l-0.2-1.1l-0.2-1.2l-0.1-1.4v-1.4v-1.4l0.1-1.4l0.2-1.4
		l0.4-1.5l0.4-1.4l0.5-1.4l0.7-1.4l0.7-1.2l0.9-1.4l1.1-1.1l1.1-1.1l1.4-1l1.7-1.1l1.9-0.7l1.9-0.7l2-0.4l2.1-0.4h2.1h2l2.1,0.2
		l2.1,0.2l1.9,0.5l2,0.5l1.7,0.7l1.6,0.7l1.5,0.9l1.4,1L997.8,1357.1L997.8,1357.1z M996.9,1411.5l0.9,1.4l0.7,1.6l0.6,1.9l0.6,2
		l0.4,2.1l0.2,2.2v2.3l-0.2,2.3l-0.1,1.2l-0.2,1.2l-0.2,1.1l-0.4,1.2l-0.5,1.1l-0.5,1.1l-0.6,1.2l-0.7,1.1l-0.7,1l-0.9,1.1l-1,1
		l-1.1,1l-1.1,1l-1.2,0.9l-1.4,0.9l-1.5,0.7l-1.7,0.7l-1.7,0.5l-1.7,0.5l-1.9,0.2l-2,0.2l-2.2,0.1h-2.5h-2.8l-2.7-0.9l-2.5-1
		l-2.3-1.1l-2.2-1.1l-2-1.2l-1.7-1.2l-0.7-0.6l-0.7-0.6l-0.5-0.7l-0.5-0.6l-1.1-1.5l-0.9-1.6l-0.7-1.9l-0.6-2l-0.4-2l-0.2-2.1
		l-0.1-2.1l0.1-2.2l0.2-2.1l0.4-2.1l0.5-2.1l0.7-2l0.7-1.9l1-1.7l1-1.5l1.1-1.2l1-0.9l1-0.9l1.1-0.7l1.1-0.7l1.2-0.6l1.1-0.5
		l1.4-0.6l1.2-0.4l1.4-0.4l1.4-0.4l1.4-0.2l1.4-0.2l1.4-0.1h1.4h1.5h1.4l1.5,0.2l1.5,0.1l1.4,0.2l1.4,0.4l1.4,0.5l1.4,0.4l1.4,0.6
		l1.4,0.6l1.2,0.7l1.2,0.7l1.1,0.7l1.1,1l1.1,1l1,1l0.9,1.1L996.9,1411.5L996.9,1411.5z"/>
	<path class="st3" d="M1036.6,1348.2l-1.1,1.1l-1,1.1l-1,1.1l-0.9,1.1l-0.7,1.2l-0.7,1.2l-0.7,1.2l-0.6,1.2l-1,2.5l-0.7,2.6
		l-0.6,2.6l-0.2,2.5l-0.1,2.6l0.1,2.6l0.2,2.5l0.5,2.3l0.6,2.3l0.7,2.2l0.9,2.1l1.1,1.9l1.1,1.6l1.2,1.5l1.5,1.4l1.6,1.2l1.7,1.2
		l2,1.2l2.2,1.2l2.3,1.4l-2.1,1.6l-2,1.6l-1.9,1.6l-1.6,1.5l-1.5,1.6l-1.1,1.6l-1,1.6l-0.7,1.7l-0.6,1l-0.6,1.1l-0.5,1.1l-0.5,1.1
		l-0.4,1.2l-0.4,1.4l-0.2,1.2l-0.2,1.5l-0.2,1.4l-0.1,1.5v1.4v1.5v1.6l0.1,1.5l0.2,1.5l0.2,1.6l0.4,1.5l0.4,1.6l0.5,1.5l0.5,1.5
		l0.6,1.6l0.6,1.5l0.7,1.5l0.7,1.4l0.9,1.5l1,1.4l1,1.4l1.1,1.2l1.1,1.2l1.2,1.2l1.4,1.1l1.4,1.1l1.6,1l1.5,1l1.6,0.9l1.7,0.7
		l1.7,0.7l1.7,0.6l1.7,0.5l1.9,0.5l1.7,0.4l1.9,0.2l1.9,0.2l2,0.1l1.9,0.1h1.9h1.9l1.9-0.1l2-0.2l1.9-0.4l1.7-0.4l1.9-0.4l1.7-0.5
		l1.7-0.6l1.7-0.5l1.7-0.7l1.6-0.7l1.6-0.7l1.5-0.9l1.5-0.9l1.4-1l1.4-1l1.2-1.1l1.2-1.1l1.6-1.6l1.5-1.6l1.4-1.6l1.2-1.7l1-1.7
		l1-1.7l0.9-1.7l0.7-1.9l0.6-1.7l0.5-1.7l0.5-1.9l0.2-1.7l0.2-1.7l0.1-1.7v-1.7v-1.6l-0.1-1.7l-0.2-1.6l-0.2-1.6l-0.4-1.6l-0.5-1.6
		l-0.5-1.5l-0.5-1.5l-0.6-1.4l-0.7-1.4l-0.7-1.4l-0.7-1.2l-0.7-1.1l-0.9-1.1l-0.9-1l-1-1l-0.9-0.9l-1.4-1.5l-1.5-1.5l-1.6-1.4
		l-1.6-1.2l-1.7-1.1l-1.9-0.9l-1.7-0.7l-1.9-0.4l1.4-1.2l1.4-1.4l1.2-1.4l1.2-1.5l2.2-2.8l1.7-2.6l0.6-0.9l0.5-1l0.4-1l0.5-1.1
		l0.2-1.1l0.2-1.2l0.2-1.2l0.1-1.2l0.1-2.6v-2.7l-0.4-2.7l-0.6-2.8l-0.9-2.7l-1-2.7l-0.6-1.4l-0.7-1.2l-0.7-1.2l-0.7-1.2l-0.9-1.2
		l-1-1.1l-0.9-1.1l-1.1-1l-1.1-1l-1.1-0.9l-1.2-0.9l-1.4-0.7l-1.6-0.7l-1.6-0.7l-1.7-0.6l-1.7-0.5l-1.6-0.5l-1.7-0.4l-1.6-0.2
		l-1.7-0.4l-3.3-0.2l-3.3-0.1h-3.2l-3.2,0.4l-1.5,0.2l-1.6,0.2l-1.5,0.4l-1.4,0.4l-2.8,1l-2.7,1.1l-2.6,1.4l-2.3,1.5l-2.2,1.6
		L1036.6,1348.2L1036.6,1348.2z M1074.6,1353.8l1.4,0.9l1.2,1.1l1.1,1.1l1.1,1.4l1,1.4l0.9,1.6l0.6,1.6l0.6,1.7l0.5,1.7l0.2,1.7
		l0.1,1.9l-0.1,2l-0.2,1.9l-0.5,1.9l-0.7,2l-1,1.9l-0.6,1l-0.7,0.9l-0.7,0.9l-1,0.9l-0.9,0.9l-1.1,0.7l-1.1,0.6l-1.1,0.6l-1.2,0.6
		l-1.2,0.5l-1.2,0.5l-1.4,0.4l-1.4,0.4l-1.4,0.2l-1.4,0.2l-1.5,0.1l-1.4,0.1h-1.4l-1.4-0.1l-1.5-0.2l-1.4-0.1l-1.2-0.4l-1.4-0.5
		l-1.2-0.5l-1.2-0.5l-1.1-0.7l-1.1-0.7l-1.1-0.9l-1-1l-0.9-1l-0.9-1.2l-0.7-1.2l-0.5-1.1l-0.5-1.1l-0.4-1.2l-0.4-1.4l-0.4-1.2
		l-0.1-1.5l-0.1-1.4v-1.5v-1.5l0.2-1.4l0.4-1.5l0.4-1.5l0.6-1.4l0.7-1.5l0.9-1.4l1.1-1.2l1.4-1.5l1.6-1.2l1.7-1l1.9-1l1.9-0.7l2-0.5
		l2.1-0.5l2-0.2l2.1-0.1l2-0.1l2,0.1l1.9,0.2l1.7,0.4l1.7,0.5l1.5,0.6L1074.6,1353.8L1074.6,1353.8z M1086.6,1406.8l1.2,1.1l1,1.4
		l1.1,1.6l1,1.9l0.9,2l0.7,2.1l0.5,2.3l0.5,2.3l0.1,1.2v1.1v1.2l-0.1,1.2l-0.1,1.2l-0.2,1.2l-0.4,1.2l-0.4,1.4l-0.5,1.2l-0.6,1.1
		l-0.7,1.2l-0.7,1.2l-1,1.2l-1,1.1l-1.1,1.1l-1.2,1.2l-1.5,1l-1.6,1l-1.6,0.7l-1.7,0.7l-1.9,0.7l-2.1,0.6l-2.5,0.6l-2.7,0.6
		l-2.7-0.2l-2.7-0.4l-2.6-0.5l-2.3-0.6l-2.2-0.6l-2-0.9l-0.9-0.5l-0.9-0.4l-0.7-0.5l-0.6-0.6l-1.4-1.1l-1.2-1.5l-1.2-1.6l-1-1.7
		l-0.9-1.9l-0.6-2l-0.6-2.1l-0.5-2l-0.2-2.2l-0.1-2.2v-2.1l0.2-2.1l0.4-1.9l0.5-1.9l0.6-1.7l0.9-1.6l0.7-1l0.7-1.1l0.9-1l1-0.9
		l1-0.9l1-0.9l1.1-0.9l1.1-0.7l1.2-0.6l1.2-0.6l1.2-0.6l1.4-0.5l1.2-0.5l1.4-0.4l1.4-0.2l1.5-0.4l1.4-0.1l1.5-0.1l1.5-0.1h1.4
		l1.5,0.1l1.4,0.1l1.5,0.2l1.4,0.2l1.4,0.4l1.4,0.5l1.4,0.5l1.4,0.6l1.2,0.7l1.2,0.7l1.1,0.9L1086.6,1406.8L1086.6,1406.8z"/>
	<polygon class="st3" points="1124.9,1391.9 1125.5,1390.3 1126.2,1388.9 1126.9,1387.4 1127.6,1386.1 1128.4,1384.8 1129.2,1383.6 
		1130.2,1382.3 1131.2,1381.2 1132.3,1380.2 1133.4,1379.3 1134.7,1378.3 1136,1377.4 1137.4,1376.5 1138.9,1375.8 1140.5,1375.1 
		1142.2,1374.4 1144.7,1373.7 1147,1373.1 1149.5,1372.8 1152,1372.8 1153.2,1372.8 1154.5,1373 1155.7,1373.2 1156.9,1373.4 
		1158.2,1373.8 1159.4,1374.3 1160.5,1374.8 1161.7,1375.3 1162.9,1375.9 1164,1376.7 1165.1,1377.5 1166.2,1378.4 1167.2,1379.4 
		1168.3,1380.5 1169.3,1381.6 1170.2,1382.8 1171.1,1384.2 1172,1385.7 1172.9,1387.2 1173.6,1388.8 1174.4,1390.5 1175.1,1392.4 
		1175.7,1394.3 1176.3,1396.3 1176.7,1398.7 1177.1,1401 1177.1,1403.4 1176.9,1405.5 1176.7,1407.6 1176.2,1409.7 1175.6,1411.5 
		1174.7,1413.4 1173.7,1415.2 1172.6,1416.8 1171.3,1418.4 1169.8,1419.9 1168.2,1421.3 1166.3,1422.6 1164.3,1423.8 1162.4,1424.9 
		1160.5,1425.6 1158.9,1426.2 1157.2,1426.7 1155.7,1427.2 1154.1,1427.5 1152.6,1427.6 1151.2,1427.7 1149.9,1427.7 1148.5,1427.6 
		1147.3,1427.5 1146.1,1427.2 1144.9,1426.8 1143.8,1426.5 1142.7,1426.1 1141.7,1425.6 1140.7,1425.1 1138.9,1423.9 1137.3,1422.6 
		1135.9,1421.3 1134.7,1420 1132.7,1417.7 1131.3,1415.8 1117.1,1420.9 1118.1,1422.6 1119.6,1425.4 1120.7,1427.1 1122.1,1428.9 
		1123.6,1430.8 1125.4,1432.7 1126.4,1433.5 1127.5,1434.4 1128.8,1435.4 1130,1436.1 1131.2,1437 1132.7,1437.7 1134.2,1438.5 
		1135.7,1439.1 1137.4,1439.7 1139.1,1440.2 1141,1440.7 1143,1441.1 1144.9,1441.3 1147.2,1441.4 1149.4,1441.4 1151.7,1441.4 
		1153.7,1441.3 1155.7,1441.1 1157.7,1440.7 1159.6,1440.3 1161.7,1439.8 1163.7,1439.2 1165.8,1438.6 1167.8,1437.7 1169.8,1436.7 
		1171.8,1435.6 1173.6,1434.4 1175.6,1433 1177.3,1431.7 1179,1430.2 1180.8,1428.7 1182.4,1427.1 1183.9,1425.2 1185.4,1423.4 
		1186.6,1421.4 1187.8,1419.3 1188.8,1417.1 1189.8,1414.9 1190.5,1412.4 1191.2,1409.9 1191.7,1407.3 1192,1404.6 1192.1,1401.8 
		1192,1398.9 1191.8,1395.9 1191.3,1392.9 1190.7,1389.6 1189.8,1386.3 1189.2,1384.4 1188.4,1382.6 1187.8,1380.9 1187,1379.1 
		1186.2,1377.5 1185.4,1376 1184.5,1374.6 1183.6,1373.2 1182.6,1372 1181.6,1370.7 1180.7,1369.5 1179.5,1368.4 1178.4,1367.4 
		1177.3,1366.4 1176.2,1365.4 1175.1,1364.5 1172.6,1363.1 1170.2,1361.7 1167.7,1360.6 1165.1,1359.7 1162.5,1359.1 1159.8,1358.6 
		1157.1,1358.4 1154.5,1358.2 1153.1,1358.1 1151.7,1358.1 1150.5,1358.1 1149.3,1358.2 1147,1358.5 1144.9,1359 1141.4,1360.1 
		1139,1361 1136.8,1361.8 1134.4,1362.8 1132.1,1363.9 1129.9,1365.4 1128.8,1366.2 1127.6,1367.1 1126.5,1368.1 1125.4,1369.2 
		1124.4,1370.4 1123.4,1371.7 1122.6,1373.1 1121.7,1374.7 1115,1342.2 1161.6,1325.4 1156.7,1311.5 1099,1332.3 1112.3,1396.3 
		1124.9,1391.9 	"/>
	<path class="st0" d="M288.2,811.8l-5.9,19.2l149,45.6l5.9-19.3L288.2,811.8L288.2,811.8z M453.9,862.4l-5.8,19.2l21.3,6.6l5.8-19.2
		L453.9,862.4L453.9,862.4z"/>
	<polygon class="st0" points="404.2,906.9 393.7,992.6 284.9,885.6 267.9,883.5 253.4,1001.3 271.1,1003.5 282.5,910.9 
		390.1,1017.8 408.1,1020 421.9,909 404.2,906.9 	"/>
	<polygon class="st0" points="264.4,1151.6 395.7,1176 270.4,1193.7 273.2,1214 427.6,1192.4 423.6,1164.2 286.1,1138.1 
		411.1,1075.2 407.2,1047 252.8,1068.7 255.6,1089 381,1071.5 261.6,1131.2 264.4,1151.6 	"/>
	<path class="st0" d="M295.6,1280.4l6.5,18.9l147.3-50.7l-6.5-19L295.6,1280.4L295.6,1280.4z M459.4,1223.9l6.5,19l21-7.3l-6.5-19
		L459.4,1223.9L459.4,1223.9z"/>
	<path class="st0" d="M326.2,1362.9l9.8,17.6l58.5-32.4l24.8,44.6l1.4,2.6l1.1,2.5l0.9,2.5l0.6,2.2l0.4,2.1l0.1,2.1v1.9l-0.1,1.9
		l-0.4,1.7l-0.6,1.6l-0.7,1.6l-0.7,1.5l-1,1.5l-1.1,1.4l-1.2,1.2l-1.4,1.2l-1.4,1.2l-1.6,1.1l-1.5,1l-1.6,1.1l-3.5,2l-3.5,1.9
		l-3.5,1.9l-3.5,1.9l-3.2,1.9l-3.1,1.9l-3.7,2.7l-3.8,3.1l-1.9,1.7l-1.9,1.7l-1.9,2.1l-1.9,2.1l11.7,21.1l4.4-2.5l0.2-1.5l0.4-1.5
		l0.5-1.5l0.6-1.4l0.9-1.2l1-1.4l1.1-1.2l1.4-1.2l1.5-1.4l1.6-1.2l2-1.4l2.1-1.5l4.9-3l5.8-3.6l4-2.2l3.5-2.1l3.1-2l2.8-1.9l2.3-1.9
		l2-1.7l1.7-1.7l1.5-1.7l0.7-1l0.5-0.9l0.6-1l0.4-1l0.9-2.1l0.6-2.3l0.5-2.5l0.4-2.7l0.2-3.1l0.2-3.3l3.2,1.4l3.1,1.2l2.8,1.1l2.7,1
		l2.7,0.7l2.6,0.5l2.5,0.4l2.6,0.1h2.5l2.6-0.4l2.5-0.5l2.7-0.7l2.7-1.1l2.8-1.2l3-1.6l3.1-1.9l2.7-1.9l2.5-1.7l2.3-1.9l2.1-1.9
		l1.9-1.9l1.7-1.9l1.5-1.9l1.4-2l1.1-1.9l1-2l0.9-2l0.6-1.9l0.6-2l0.4-2l0.2-2.1l0.1-2v-2v-2l-0.2-2l-0.4-2.1l-0.4-2l-0.5-2.1
		l-0.6-2l-0.6-2l-1.6-4.1l-1.7-4.1l-2-4l-2.2-4l-33.7-61.1L326.2,1362.9L326.2,1362.9z M480.9,1357.3l1.2,2.1l1,2.3l1.1,2.3l0.9,2.6
		l0.6,2.6l0.5,2.6l0.2,1.4v1.4v1.4v1.4l-0.2,1.4l-0.2,1.4l-0.4,1.4l-0.5,1.4l-0.6,1.2l-0.6,1.4l-0.9,1.4l-1,1.2l-1.1,1.2l-1.2,1.2
		l-1.4,1.1l-1.5,1.2l-1.7,1.1l-1.9,1.1l-2.1,1l-2.2,1l-1.7,0.7l-1.6,0.5l-1.6,0.5l-1.6,0.5l-1.5,0.2l-1.5,0.2l-1.4,0.1h-1.5h-1.2
		l-1.4-0.1l-1.2-0.2l-1.2-0.2l-1.1-0.4l-1.1-0.4l-1.1-0.4l-1.1-0.6l-1-0.5l-1-0.6l-1-0.7l-0.9-0.7l-1.7-1.6l-1.6-1.7l-1.6-1.9
		l-1.4-2l-1.4-2.1l-1.2-2.2l-24.3-43.9l46.7-26L480.9,1357.3L480.9,1357.3z"/>
	<polygon class="st0" points="506.1,1604.2 521,1617.7 613.4,1515 651.2,1549.1 663.1,1535.9 572.3,1454 560.4,1467.1 598.5,1501.5 
		506.1,1604.2 	"/>
	<path class="st0" d="M606,1681l16.9,10.6l82.7-132.1l-17.1-10.8L606,1681L606,1681z M697.8,1533.9l17.1,10.6l11.7-18.8l-17.1-10.6
		L697.8,1533.9L697.8,1533.9z"/>
	<polygon class="st0" points="834.6,1672.1 835,1667.1 835,1662.1 835,1659.6 834.9,1657.1 834.6,1654.5 834.4,1652.1 834,1649.6 
		833.6,1647.1 833,1644.6 832.4,1642.2 831.8,1639.7 830.9,1637.2 830.1,1634.8 828.9,1632.4 828.2,1630.8 827.1,1628.9 825.9,1627 
		824.5,1625 822.9,1622.9 821.2,1620.8 819.2,1618.7 817.1,1616.5 814.9,1614.4 812.4,1612.1 809.9,1610.2 807.1,1608.1 
		804.2,1606.2 801.3,1604.5 798,1602.7 794.7,1601.3 791.4,1600 787.9,1599 784.6,1598.3 781.1,1597.5 777.8,1597.2 774.4,1596.8 
		771.2,1596.7 768.1,1596.7 765.2,1596.8 762.2,1597.1 759.5,1597.3 757,1597.7 754.5,1598.2 752.4,1598.8 750.5,1599.3 748.7,1600 
		746.5,1600.9 744.4,1601.9 742.3,1602.9 740.3,1604 738.4,1605.2 736.4,1606.4 734.5,1607.7 732.7,1609 730.8,1610.5 729.1,1611.9 
		727.4,1613.5 725.6,1615 722.4,1618.2 719.3,1621.7 716.5,1625.1 713.8,1628.7 711.2,1632.4 708.8,1636.2 706.7,1640.1 
		704.6,1643.9 702.8,1647.7 701.2,1651.6 699.7,1655.4 698.2,1659.5 697,1663.6 695.8,1667.9 695,1672.2 694.2,1676.7 693.6,1681.1 
		693.3,1685.7 693.1,1690.3 693.3,1694.8 693.4,1697.1 693.6,1699.4 693.9,1701.6 694.2,1704 694.6,1706.2 695.1,1708.4 
		695.7,1710.8 696.3,1713 697,1715.2 697.8,1717.3 698.6,1719.6 699.6,1721.7 700.3,1723.4 701.4,1725.1 702.5,1727.1 703.9,1729.1 
		705.5,1731.2 707.2,1733.3 709.2,1735.4 711.3,1737.6 713.5,1739.7 715.9,1741.8 718.5,1743.9 721.2,1745.9 724.1,1747.9 
		727.1,1749.6 730.3,1751.3 733.5,1752.8 737,1753.9 740.5,1755 743.8,1755.8 747.3,1756.4 750.6,1756.9 753.8,1757.3 757.1,1757.4 
		760.2,1757.4 763.2,1757.3 766.2,1757 768.9,1756.8 771.5,1756.4 773.8,1755.9 776,1755.4 778,1754.8 779.9,1754.2 782.8,1752.8 
		785.8,1751.3 788.8,1749.7 791.6,1748 794.3,1746.1 796.9,1744.3 799.5,1742.2 802,1740.1 804.3,1737.8 806.6,1735.5 808.8,1733 
		810.9,1730.6 813,1728.1 814.9,1725.5 816.7,1722.9 818.4,1720.2 799.4,1712.5 796.9,1716.1 794.2,1719.4 791.5,1722.6 
		788.5,1725.6 785.7,1728.3 782.6,1730.7 781.1,1731.8 779.6,1732.8 778.2,1733.8 776.7,1734.6 774.4,1735.7 772.3,1736.7 
		770.1,1737.5 767.9,1738.2 765.7,1738.7 763.3,1739.1 761.1,1739.5 758.9,1739.6 756.5,1739.6 754.3,1739.5 752.1,1739.3 
		749.9,1739 747.6,1738.5 745.5,1738 743.4,1737.2 741.3,1736.5 739.1,1735.6 737.1,1734.5 735,1733.4 733,1732.2 731.1,1730.8 
		729.2,1729.4 727.5,1727.8 725.8,1726.2 724.1,1724.5 722.7,1722.6 721.2,1720.8 719.9,1718.8 718.7,1716.7 717.6,1714.6 
		716.6,1712.4 715.7,1710 715,1707.4 714.4,1704.7 713.9,1701.9 713.5,1698.9 713.3,1695.8 713.3,1692.6 713.3,1689.4 713.5,1686.1 
		713.9,1682.8 714.3,1679.4 714.9,1676 715.7,1672.7 716.6,1669.2 717.6,1665.9 718.8,1662.6 720.2,1659.2 721.6,1655.9 
		722.9,1652.7 724.5,1649.6 726.2,1646.5 728.1,1643.5 730,1640.7 731.9,1637.8 734,1635.2 736.1,1632.8 738.4,1630.4 740.6,1628.2 
		742.9,1626.1 745.3,1624.2 747.6,1622.5 750,1621 752.3,1619.7 754.5,1618.6 756.8,1617.7 759,1616.8 761.3,1616.2 763.7,1615.7 
		766,1615.3 768.4,1615.1 770.7,1615 773.1,1615 775.4,1615.1 777.8,1615.3 780.1,1615.7 782.4,1616.2 784.6,1616.8 786.8,1617.6 
		789,1618.3 791,1619.2 793,1620.2 795,1621.3 796.8,1622.5 798.7,1623.8 800.4,1625.2 802.1,1626.7 803.7,1628.3 805.2,1629.9 
		806.7,1631.8 807.9,1633.6 809.3,1635.5 810.4,1637.6 811.4,1639.7 812.4,1641.9 813.1,1644.3 813.7,1646.5 814.2,1648.7 
		814.7,1651.2 815,1653.7 815.2,1656.3 815.3,1658.9 815.5,1661.6 815.5,1664.3 834.6,1672.1 	"/>
	<path class="st0" d="M894.6,1747.4l59.1,8.3l9.3,48.3l22.2,3.2l-32.5-162.1l-24.5-3.5l-77.7,146.6l21.1,3L894.6,1747.4
		L894.6,1747.4z M937,1667.6l13.1,70.7l-47.8-6.8L937,1667.6L937,1667.6z"/>
	<path class="st0" d="M1053.4,1807.1l19.9-2.5l-8.2-66.5l50.8-6.2l2.8-0.2l2.7-0.1l2.6,0.1l2.2,0.2l2.2,0.4l1.9,0.6l1.9,0.7l1.6,0.9
		l1.5,1l1.4,1.1l1.1,1.4l1.1,1.2l1,1.5l0.7,1.6l0.7,1.6l0.7,1.6l0.5,1.7l0.5,1.9l0.4,1.9l0.4,2l0.6,3.8l0.5,4l0.4,4l0.4,3.8l0.5,3.7
		l0.6,3.5l0.6,2.2l0.5,2.3l0.7,2.2l0.7,2.3l0.9,2.3l1,2.5l1.1,2.5l1.4,2.6l24-3l-0.6-5.1l-1.4-0.9l-1.2-0.9l-1.1-1l-1-1.1l-1-1.2
		l-0.7-1.5l-0.7-1.5l-0.7-1.7l-0.6-1.9l-0.6-2l-0.5-2.3l-0.5-2.5l-1-5.7l-1.1-6.8l-0.6-4.4l-0.6-4.1l-0.7-3.6l-0.6-3.2l-0.7-2.8
		l-0.9-2.6l-1-2.3l-1.1-2l-1.2-1.9l-1.5-1.6l-1.6-1.6l-2-1.4l-2.1-1.5l-2.3-1.4l-2.7-1.4l-3.1-1.5l2.5-2.5l2.3-2.3l2.1-2.2l1.9-2.2
		l1.7-2.2l1.5-2.1l1.2-2.2l1.1-2.3l0.9-2.3l0.7-2.5l0.4-2.6l0.2-2.7l0.1-3l-0.1-3.1l-0.4-3.3l-0.6-3.6l-0.6-3.2l-0.7-3l-0.7-2.8
		l-1-2.6l-1-2.3l-1.1-2.3l-1.2-2.1l-1.2-2l-1.4-1.7l-1.4-1.7l-1.5-1.5l-1.6-1.4l-1.6-1.2l-1.7-1.1l-1.7-1l-1.9-0.9l-1.9-0.7
		l-1.9-0.7l-2-0.5l-2-0.5l-2-0.4l-2.1-0.2l-2.1-0.2l-2.1-0.1l-4.3-0.1l-4.4,0.1l-4.4,0.4l-4.4,0.5l-69.2,8.5L1053.4,1807.1
		L1053.4,1807.1z M1106.1,1661.3l2.3-0.2l2.5-0.1h2.6l2.7,0.1l2.7,0.2l2.6,0.6l1.4,0.4l1.2,0.4l1.2,0.5l1.2,0.6l1.2,0.6l1.1,0.7
		l1.1,0.9l1.1,1l1,1l1,1.2l0.9,1.2l0.7,1.4l0.7,1.5l0.7,1.6l0.6,1.7l0.5,1.9l0.4,2l0.2,2.1l0.2,2.3l0.1,2.3v1.9l-0.1,1.9l-0.1,1.6
		l-0.2,1.6l-0.2,1.6l-0.4,1.4l-0.5,1.4l-0.4,1.4l-0.6,1.2l-0.5,1.1l-0.7,1.1l-0.6,1l-0.7,1l-0.9,0.9l-0.7,0.9l-1,0.7l-1.9,1.5
		l-2,1.1l-2.1,1.1l-2.2,0.9l-2.3,0.6l-2.3,0.6l-2.5,0.4l-2.5,0.4l-49.8,6.2l-6.5-53L1106.1,1661.3L1106.1,1661.3z"/>
	<polygon class="st0" points="1246,1775.2 1350.5,1735.1 1344,1718.6 1258.4,1751.4 1239.4,1701.5 1318.3,1671.2 1312,1654.7 
		1232.9,1684.9 1215.3,1639.1 1297.6,1607.4 1291.1,1590.9 1190.2,1629.7 1246,1775.2 	"/>
	<polygon class="st0" points="1440.7,1684.7 1457.5,1673.8 1382.3,1557.9 1425,1530.2 1415.3,1515.3 1312.8,1582 1322.4,1596.8 
		1365.4,1568.9 1440.7,1684.7 	"/>
	<path class="st0" d="M1513,1403.6l-2.2,3.2l-2.1,3.5l-2,3.3l-1.6,3.3l-1.6,3.5l-1.4,3.3l-1.1,3.3l-1,3.2l-0.9,3.2l-0.7,3.1l-0.5,3
		l-0.5,2.7l-0.2,2.6l-0.1,2.5l-0.1,2.1l0.1,2l0.1,2.5l0.4,2.5l0.4,2.5l0.4,2.3l0.6,2.3l0.6,2.2l0.6,2.3l0.7,2.2l0.9,2.2l0.9,2.2
		l0.9,2.1l1.1,2.1l1,2.1l1.1,2l1.2,2l1.1,2l2.6,3.8l2.7,3.7l2.8,3.5l3,3.3l3.1,3.1l3.2,3l3.2,2.8l3.3,2.6l3.3,2.5l3.5,2.3l3.7,2.2
		l4,2.1l4,2l4.2,1.9l4.2,1.6l4.4,1.4l2.2,0.6l2.2,0.6l2.2,0.5l2.3,0.4l2.2,0.4l2.3,0.4l2.3,0.1l2.3,0.2l2.3,0.1h2.5l2.3-0.1l2.5-0.1
		l2.3-0.2l2.5-0.2l2.3-0.5l2.5-0.4l1.9-0.5l2.1-0.7l2.3-0.7l2.3-1l2.6-1.2l2.7-1.4l2.7-1.5l2.8-1.7l2.8-1.9l2.8-2l2.8-2.2l2.8-2.5
		l2.8-2.5l2.7-2.8l2.6-2.8l2.6-3.2l2.2-3.2l2.1-3.5l2-3.3l1.7-3.3l1.5-3.5l1.4-3.3l1.1-3.3l1-3.2l0.9-3.2l0.7-3.1l0.5-2.8l0.5-2.8
		l0.2-2.6l0.2-2.5v-2.1v-2l-0.2-2.5l-0.4-2.5l-0.4-2.5l-0.4-2.3l-0.5-2.3l-0.6-2.3l-0.7-2.2l-0.7-2.2l-0.7-2.2l-0.9-2.2l-1-2.1
		l-1-2.2l-1-2l-1.1-2.1l-1.2-2l-1.2-2l-2.5-3.8l-2.7-3.7l-2.8-3.5l-3.1-3.3l-3.1-3.1l-3.1-3l-3.3-2.7l-3.2-2.6l-3.5-2.3l-3.6-2.3
		l-3.7-2.2l-4-2.1l-4-2l-4.2-1.7l-4.2-1.7l-4.3-1.4l-2.2-0.6l-2.2-0.6l-2.3-0.5l-2.2-0.4l-2.3-0.4l-2.3-0.4l-2.2-0.2l-2.3-0.1
		l-2.5-0.1h-2.3h-2.3l-2.5,0.1l-2.3,0.2l-2.5,0.2l-2.3,0.5l-2.5,0.4l-1.9,0.5l-2.1,0.7l-2.3,0.7l-2.3,1l-2.6,1.2l-2.7,1.4l-2.7,1.5
		l-2.8,1.7l-2.8,1.9l-2.8,2l-2.8,2.2l-2.8,2.5l-2.8,2.6l-2.7,2.7l-2.6,3L1513,1403.6L1513,1403.6z M1527.3,1414.4l1.6-2l1.7-2l1.9-2
		l1.9-1.9l2-1.7l2-1.6l2.2-1.6l2.1-1.4l2.2-1.4l2.3-1.2l2.3-1.1l2.5-1l2.5-0.7l2.5-0.7l2.5-0.5l2.6-0.4l2.8-0.2l3-0.1l3.1,0.1
		l3.1,0.2l3.1,0.4l3.2,0.6l3.2,0.7l3.2,1l3.2,1.1l3.2,1.2l3.1,1.4l3.1,1.5l3.1,1.7l3.1,1.9l3,2l2.8,2.1l2.8,2.2l2.7,2.2l2.6,2.5
		l2.5,2.5l2.3,2.6l2.2,2.6l2.1,2.7l1.9,2.8l1.7,2.8l1.6,2.8l1.5,2.8l1.4,3l1,2.8l1,2.8l0.7,3l0.5,2.7l0.4,2.6l0.2,2.6v2.6l-0.1,2.6
		l-0.2,2.6l-0.5,2.6l-0.5,2.6l-0.6,2.5l-0.9,2.5l-0.9,2.5l-1,2.5l-1.1,2.3l-1.4,2.3l-1.2,2.2l-1.5,2.2l-1.5,2.1l-1.6,2l-1.7,2
		l-1.9,2l-1.9,1.9l-2,1.7l-2,1.6l-2.1,1.6l-2.2,1.4l-2.2,1.4l-2.3,1.2l-2.3,1.1l-2.5,1l-2.5,0.7l-2.5,0.7l-2.5,0.5l-2.6,0.4
		l-2.8,0.2l-3,0.1l-3.1-0.1l-3.1-0.2l-3.1-0.4l-3.2-0.6l-3.2-0.7l-3.2-1l-3.2-1l-3.1-1.4l-3.2-1.4l-3.1-1.5l-3.1-1.7l-3.1-1.9
		l-2.8-2l-2.8-2.1l-2.8-2.2l-2.8-2.2l-2.6-2.5l-2.5-2.5l-2.3-2.6l-2.2-2.6l-2-2.7l-2-2.8l-1.7-2.8l-1.6-2.8l-1.5-2.8l-1.2-3
		l-1.1-2.8l-1-2.8l-0.7-2.8l-0.5-2.8l-0.4-2.6l-0.1-2.6l-0.1-2.6l0.1-2.6l0.2-2.6l0.5-2.6l0.5-2.6l0.6-2.5l0.9-2.5l0.9-2.5l1-2.5
		l1.2-2.3l1.2-2.3l1.2-2.2l1.5-2.2L1527.3,1414.4L1527.3,1414.4z"/>
	<path class="st0" d="M1745.3,1309.8l0.4-1.5l0.4-1.6l0.4-1.9l0.1-2.1l0.1-2.2v-2.3l-0.1-2.5l-0.2-2.6l-0.5-2.8l-0.6-3l-0.7-3
		l-1-3.2l-1.2-3.2l-1.5-3.3l-1.6-3.5l-2-3.6l-1-1.7l-1.1-1.9l-1.2-1.6l-1.1-1.7l-1.4-1.6l-1.2-1.7l-1.4-1.5l-1.5-1.6l-3-3l-3.2-2.8
		l-3.3-2.7l-3.6-2.6l-3.8-2.5l-4-2.2l-4.1-2.2l-4.3-2.1l-4.4-2l-4.7-1.7l-4.8-1.7l-4.9-1.6l-3.6-1l-3.6-0.9l-3.5-0.7l-3.5-0.5
		l-3.5-0.4l-3.3-0.2l-3.3-0.1h-3.2l-3.2,0.2l-3.1,0.2l-3.1,0.5l-3,0.6l-3,0.7l-2.8,0.9l-2.7,1l-2.7,1.1l-2.7,1.2l-2.5,1.4l-2.5,1.5
		l-2.3,1.6l-2.3,1.6l-2.2,1.9l-2.1,2l-2.1,2l-1.9,2.2l-1.9,2.2l-1.7,2.3l-1.6,2.5l-1.6,2.5l-1.4,2.6l-1.4,2.8l-1.2,2.7l-22.5,55.7
		l144.5,58.3L1745.3,1309.8L1745.3,1309.8z M1612.3,1270l1.1-2.5l1.1-2.3l1.2-2.2l1.5-2.2l1.5-2.1l1.7-2.1l1.7-1.9l2-1.9l2-1.7
		l2.2-1.6l2.3-1.4l2.5-1.4l2.6-1.1l2.8-1l2.8-0.7l3.1-0.6l2.6-0.4l2.6-0.2h2.6h2.6l2.6,0.1l2.6,0.4l2.7,0.4l2.6,0.5l2.6,0.5l2.6,0.7
		l2.6,0.7l2.5,0.9l5.1,1.7l4.8,2.1l4.6,2.1l4.3,2.3l4.1,2.2l3.7,2.2l3.5,2.1l3,2l2.6,1.7l2.1,1.5l1.2,1.1l1.4,1.2l1.2,1.4l1.2,1.6
		l1.4,1.6l1.2,1.7l1.2,1.9l1.1,2l1.1,2l1,1.9l0.9,2l0.9,1.9l0.6,1.9l0.5,1.7l0.4,1.6l0.1,1.5l0.1,2.5l-0.1,2.1l-0.1,2.1l-0.4,1.9
		l-0.4,1.9l-0.5,1.9l-0.6,2l-0.9,2l-16.3,40.4l-111.6-45.1L1612.3,1270L1612.3,1270z"/>
	<path class="st0" d="M1738.9,1161.1l8.3-59.1l48.3-9.1l3.1-22.2l-161.9,32.5l-3.5,24.4l146.4,77.9l3-21.3L1738.9,1161.1
		L1738.9,1161.1z M1659,1118.8l70.7-13.1l-6.7,47.8L1659,1118.8L1659,1118.8z"/>
	<polygon class="st0" points="1674.6,908.8 1673.1,908.9 1671.4,909.2 1669.4,909.4 1667.2,909.9 1665,910.5 1662.5,911.4 
		1659.9,912.4 1657.3,913.7 1654.6,915.2 1652,917.1 1650.6,918.2 1649.3,919.3 1648,920.4 1646.7,921.7 1645.4,923.1 1644.2,924.5 
		1643,926.1 1641.9,927.7 1640.7,929.4 1639.6,931.3 1638.5,933.3 1637.5,935.4 1636.8,937.4 1636.1,939.3 1635.4,941.6 
		1634.8,943.8 1634.4,946.1 1634.1,948.6 1633.7,951.1 1633.5,953.5 1633.3,956.1 1633.3,958.7 1633.3,961.2 1633.3,963.8 
		1633.6,969 1634.1,973.9 1634.6,977.4 1635.2,980.7 1635.9,983.8 1636.8,986.9 1637.8,989.8 1638.9,992.6 1640.1,995.2 
		1641.4,997.7 1642.7,1000.1 1644.2,1002.4 1645.8,1004.5 1647.4,1006.4 1649.2,1008.3 1651,1010 1652.9,1011.5 1654.8,1013 
		1656.8,1014.4 1658.8,1015.6 1660.9,1016.7 1663,1017.6 1665.2,1018.4 1667.4,1019.2 1669.7,1019.8 1672,1020.3 1674.2,1020.7 
		1676.6,1020.8 1678.9,1020.9 1681.3,1020.9 1683.5,1020.8 1685.9,1020.5 1688.2,1020.3 1690.6,1019.8 1692.3,1019.3 1694,1018.8 
		1695.6,1018.3 1697.1,1017.8 1699.9,1016.6 1702.4,1015.2 1704.8,1013.7 1706.7,1012.1 1708.5,1010.5 1710.1,1008.8 1711.4,1007.1 
		1712.7,1005.3 1713.7,1003.5 1714.4,1001.9 1715.1,1000.1 1715.6,998.5 1716.1,997.1 1716.5,995.7 1717.9,988.9 1718.9,984.4 
		1719.6,981.5 1720,979.3 1720.3,977 1720.7,974.1 1721.2,969.6 1721.9,962.9 1722.3,958.9 1722.8,954.5 1723.3,950.2 1724,945.8 
		1724.8,941.4 1725.6,937.2 1726.8,933.3 1728,929.4 1729,927.6 1730,926 1731.1,924.5 1732.2,923 1733.4,921.8 1734.5,920.7 
		1735.8,919.7 1737,918.8 1738.4,918.1 1739.6,917.5 1741,917 1742.3,916.5 1743.6,916.2 1744.9,916 1746.3,915.8 1747.6,915.7 
		1749,915.8 1750.4,916 1751.7,916.1 1753.1,916.3 1754.3,916.7 1755.7,917.1 1756.9,917.6 1758.1,918.1 1760.5,919.3 1762.8,920.7 
		1764.9,922.1 1766.8,923.8 1767.8,924.7 1768.8,925.7 1769.6,926.8 1770.4,928.1 1771.9,930.4 1773.2,933.1 1774.3,935.9 
		1775.3,938.8 1776.2,941.8 1776.9,944.8 1777.6,947.6 1777.9,950.6 1778.3,953.4 1778.5,956.1 1778.7,958.7 1778.7,961.1 
		1778.7,963.3 1778.7,965.2 1778.4,967.8 1778.2,970.1 1777.8,972.3 1777.3,974.4 1776.7,976.5 1775.9,978.4 1775.2,980.2 
		1774.5,982 1773.5,983.6 1772.6,985.1 1771.5,986.5 1770.5,987.8 1769.4,989 1768.2,990.3 1767,991.2 1765.8,992.2 1764.6,993.1 
		1763.2,994 1762,994.7 1760.7,995.4 1758.1,996.7 1755.7,997.5 1753.3,998.3 1751,998.9 1748.9,999.3 1747.2,999.5 1749.4,1017.9 
		1753.7,1017.2 1758,1016.3 1760.1,1015.8 1762.1,1015.3 1764.1,1014.7 1766.2,1014 1768.2,1013.1 1770.1,1012.1 1772.1,1010.9 
		1774.1,1009.7 1776.2,1008.2 1778.2,1006.4 1780.3,1004.6 1782.4,1002.5 1785,999.5 1787.2,996.6 1789.2,993.6 1790.9,990.5 
		1792.4,987.5 1793.5,984.4 1794.5,981.4 1795.2,978.3 1795.8,975.1 1796.2,971.8 1796.5,968.5 1796.6,965.2 1796.5,961.6 
		1796.3,958.1 1796.1,954.4 1795.8,950.6 1795.5,947.5 1795,944.4 1794.4,941.4 1793.7,938.5 1792.9,935.5 1792,932.7 1791,929.9 
		1789.9,927.2 1788.7,924.6 1787.3,922 1785.8,919.6 1784.3,917.2 1782.7,914.9 1781,912.8 1779.3,910.7 1777.4,908.7 1775.5,906.8 
		1773.5,905.1 1771.4,903.5 1769.1,902 1766.9,900.6 1764.6,899.5 1762.2,898.4 1759.8,897.4 1757.3,896.7 1754.7,896.1 
		1752.1,895.6 1749.4,895.3 1746.7,895.2 1743.9,895.2 1741.1,895.4 1738.3,895.8 1736.9,896.1 1735.4,896.4 1734.1,896.8 
		1732.7,897.3 1730.1,898.4 1727.5,899.7 1724.9,901.3 1722.6,903 1720.2,904.8 1718.1,906.8 1716,909 1714.2,911.3 1712.4,913.6 
		1710.9,916.1 1709.6,918.7 1708.5,921.2 1707.6,923.8 1706.9,926.4 1706.1,931.3 1705.5,936.2 1704.8,941.2 1704,946.1 
		1703.3,951.1 1702.5,956 1701.9,961 1701.2,965.9 1700.9,969.7 1700.6,973.3 1700.1,976.8 1699.4,979.9 1698.8,982.8 1698.1,985.6 
		1697.3,988 1696.5,990.4 1695.6,992.1 1694.8,993.7 1693.6,995.2 1692.5,996.6 1691.2,997.7 1689.8,998.8 1688.3,999.7 
		1686.7,1000.5 1685.1,1001.1 1683.4,1001.6 1681.7,1002 1679.8,1002.1 1677.9,1002.2 1676.1,1002.1 1674.2,1001.9 1672.4,1001.4 
		1670.5,1000.9 1668.7,1000.1 1666.9,999.2 1665.2,998.2 1663.5,996.9 1661.8,995.4 1660.3,993.8 1658.7,992.1 1657.3,990.1 
		1655.9,988 1654.8,985.8 1653.7,983.2 1652.7,980.6 1652,977.8 1651.3,974.7 1650.8,971.5 1650.4,968.5 1650.1,965.5 1650,962.6 
		1650,959.5 1650.1,957.9 1650.3,956.3 1650.6,954.5 1651,952.8 1651.5,950.9 1652,949.1 1652.7,947.1 1653.6,945 1654.7,942.8 
		1655.8,940.7 1657.1,938.8 1658.4,937.2 1659.8,935.7 1661.1,934.4 1662.5,933.1 1664,932.2 1665.5,931.3 1667.1,930.6 
		1668.7,929.8 1670.3,929.3 1671.9,928.9 1673.5,928.6 1675.2,928.3 1677,928.2 1674.6,908.8 	"/>
	<polygon class="st0" points="1770.3,837 1765.1,817.6 1614.4,857.9 1619.6,877.3 1770.3,837 	"/>
</g>
</svg>
